<svg width="570" height="590" viewBox="0 0 570 590" fill="none" xmlns="http://www.w3.org/2000/svg">
<rect x="8" y="9" width="552" height="570" fill="white"/>
<circle cx="39" cy="10" r="10" fill="#E6F2FF"/>
<circle cx="71.7745" cy="10" r="10" fill="#E6F2FF"/>
<circle cx="104.549" cy="10" r="10" fill="#E6F2FF"/>
<circle cx="137.323" cy="10" r="10" fill="#E6F2FF"/>
<circle cx="170.098" cy="10" r="10" fill="#E6F2FF"/>
<circle cx="202.872" cy="10" r="10" fill="#E6F2FF"/>
<circle cx="235.647" cy="10" r="10" fill="#E6F2FF"/>
<circle cx="268.421" cy="10" r="10" fill="#E6F2FF"/>
<circle cx="301.196" cy="10" r="10" fill="#E6F2FF"/>
<circle cx="333.97" cy="10" r="10" fill="#E6F2FF"/>
<circle cx="366.745" cy="10" r="10" fill="#E6F2FF"/>
<circle cx="399.519" cy="10" r="10" fill="#E6F2FF"/>
<circle cx="432.294" cy="10" r="10" fill="#E6F2FF"/>
<circle cx="465.068" cy="10" r="10" fill="#E6F2FF"/>
<circle cx="497.843" cy="10" r="10" fill="#E6F2FF"/>
<circle cx="530.617" cy="10" r="10" fill="#E6F2FF"/>
<circle cx="39" cy="579.562" r="10" fill="#E6F2FF"/>
<circle cx="71.7745" cy="579.562" r="10" fill="#E6F2FF"/>
<circle cx="104.549" cy="579.562" r="10" fill="#E6F2FF"/>
<circle cx="137.323" cy="579.562" r="10" fill="#E6F2FF"/>
<circle cx="170.098" cy="579.562" r="10" fill="#E6F2FF"/>
<circle cx="202.872" cy="579.562" r="10" fill="#E6F2FF"/>
<circle cx="235.647" cy="579.562" r="10" fill="#E6F2FF"/>
<circle cx="268.421" cy="579.562" r="10" fill="#E6F2FF"/>
<circle cx="301.196" cy="579.562" r="10" fill="#E6F2FF"/>
<circle cx="333.97" cy="579.562" r="10" fill="#E6F2FF"/>
<circle cx="366.745" cy="579.562" r="10" fill="#E6F2FF"/>
<circle cx="399.519" cy="579.562" r="10" fill="#E6F2FF"/>
<circle cx="432.294" cy="579.562" r="10" fill="#E6F2FF"/>
<circle cx="465.068" cy="579.562" r="10" fill="#E6F2FF"/>
<circle cx="497.843" cy="579.562" r="10" fill="#E6F2FF"/>
<circle cx="530.617" cy="579.562" r="10" fill="#E6F2FF"/>
<circle cx="10" cy="10" r="10" transform="matrix(1 0 0 -1 0 518)" fill="#E6F2FF"/>
<circle cx="560" cy="508" r="10" fill="#E6F2FF"/>
<path d="M35 508H535" stroke="#CCCCCC" stroke-width="1.70326" stroke-linejoin="round" stroke-dasharray="8.52 8.52"/>
</svg>
