<svg width="208" height="64" viewBox="0 0 208 64" fill="none" xmlns="http://www.w3.org/2000/svg">
<path d="M84.2475 35.1703L79.6589 35.4526C79.5805 35.0605 79.4118 34.7075 79.153 34.3937C78.8941 34.0722 78.5529 33.8172 78.1294 33.629C77.7137 33.4329 77.2156 33.3348 76.6352 33.3348C75.8586 33.3348 75.2037 33.4996 74.6703 33.829C74.1369 34.1506 73.8703 34.582 73.8703 35.1232C73.8703 35.5546 74.0428 35.9193 74.3879 36.2174C74.7331 36.5155 75.3253 36.7547 76.1645 36.9351L79.4354 37.594C81.1924 37.9548 82.5023 38.5352 83.3651 39.3353C84.2279 40.1353 84.6593 41.1864 84.6593 42.4885C84.6593 43.6729 84.3102 44.7121 83.6121 45.6063C82.9219 46.5005 81.9728 47.1986 80.7649 47.7006C79.5648 48.1948 78.1804 48.4418 76.6116 48.4418C74.2193 48.4418 72.3133 47.9438 70.8936 46.9476C69.4817 45.9436 68.6542 44.5788 68.411 42.8532L73.3408 42.5943C73.4898 43.3238 73.8506 43.8807 74.4232 44.2651C74.9958 44.6416 75.7292 44.8298 76.6234 44.8298C77.5019 44.8298 78.2078 44.6612 78.7412 44.3239C79.2824 43.9788 79.5569 43.5356 79.5648 42.9944C79.5569 42.5394 79.3648 42.1669 78.9883 41.8766C78.6118 41.5786 78.0313 41.3511 77.247 41.1942L74.1173 40.5707C72.3525 40.2177 71.0387 39.6059 70.1759 38.7352C69.3209 37.8646 68.8934 36.7547 68.8934 35.4056C68.8934 34.2447 69.2072 33.2446 69.8347 32.4054C70.47 31.5661 71.3603 30.919 72.5054 30.464C73.6585 30.0091 75.0076 29.7816 76.5528 29.7816C78.8353 29.7816 80.6315 30.264 81.9414 31.2288C83.2592 32.1936 84.0279 33.5074 84.2475 35.1703ZM92.8031 48.4301C91.65 48.4301 90.6225 48.2301 89.7205 47.83C88.8184 47.4222 88.1047 46.8221 87.5791 46.0299C87.0615 45.2298 86.8026 44.2337 86.8026 43.0414C86.8026 42.0374 86.9869 41.1942 87.3556 40.5118C87.7242 39.8294 88.2262 39.2804 88.8616 38.8647C89.4969 38.4489 90.2185 38.1352 91.0265 37.9234C91.8422 37.7116 92.6972 37.5626 93.5913 37.4763C94.6424 37.3665 95.4895 37.2645 96.1327 37.1704C96.7759 37.0685 97.2426 36.9194 97.5328 36.7233C97.823 36.5272 97.9681 36.237 97.9681 35.8527V35.7821C97.9681 35.0369 97.7328 34.4604 97.2622 34.0525C96.7994 33.6447 96.1406 33.4407 95.2856 33.4407C94.3836 33.4407 93.6659 33.6407 93.1325 34.0408C92.5991 34.433 92.2461 34.9271 92.0736 35.5232L87.438 35.1467C87.6733 34.0486 88.136 33.0995 88.8263 32.2995C89.5165 31.4916 90.4068 30.8719 91.4971 30.4405C92.5952 30.0013 93.8659 29.7816 95.3091 29.7816C96.3131 29.7816 97.274 29.8993 98.1917 30.1346C99.1172 30.3699 99.9369 30.7347 100.651 31.2288C101.372 31.723 101.941 32.3583 102.357 33.1348C102.772 33.9035 102.98 34.8251 102.98 35.8997V48.0889H98.227V45.5828H98.0858C97.7956 46.1475 97.4073 46.6456 96.921 47.077C96.4347 47.5006 95.8503 47.8339 95.1679 48.0771C94.4855 48.3124 93.6972 48.4301 92.8031 48.4301ZM94.2385 44.971C94.9758 44.971 95.6268 44.8259 96.1915 44.5357C96.7563 44.2376 97.1995 43.8376 97.521 43.3356C97.8426 42.8336 98.0034 42.2649 98.0034 41.6296V39.7118C97.8466 39.8137 97.6309 39.9079 97.3563 39.9942C97.0896 40.0726 96.7877 40.1471 96.4504 40.2177C96.1131 40.2805 95.7758 40.3393 95.4385 40.3942C95.1013 40.4412 94.7954 40.4844 94.5208 40.5236C93.9325 40.6099 93.4188 40.7472 92.9795 40.9354C92.5403 41.1236 92.1991 41.3786 91.9559 41.7002C91.7128 42.0139 91.5912 42.4061 91.5912 42.8767C91.5912 43.5591 91.8383 44.0807 92.3324 44.4415C92.8344 44.7945 93.4698 44.971 94.2385 44.971ZM111.715 37.641V48.0889H106.703V30.017H111.48V33.2054H111.692C112.092 32.1544 112.762 31.3229 113.704 30.7111C114.645 30.0915 115.786 29.7816 117.127 29.7816C118.382 29.7816 119.477 30.0562 120.41 30.6052C121.343 31.1543 122.069 31.9387 122.587 32.9583C123.104 33.9702 123.363 35.1781 123.363 36.5821V48.0889H118.351V37.4763C118.359 36.3704 118.077 35.5076 117.504 34.8879C116.931 34.2604 116.143 33.9467 115.139 33.9467C114.464 33.9467 113.868 34.0918 113.351 34.382C112.841 34.6722 112.441 35.0958 112.151 35.6527C111.868 36.2017 111.723 36.8645 111.715 37.641ZM133.807 48.383C132.434 48.383 131.191 48.03 130.077 47.3241C128.971 46.6103 128.093 45.5632 127.442 44.1827C126.799 42.7944 126.477 41.0923 126.477 39.0764C126.477 37.0057 126.811 35.284 127.477 33.9114C128.144 32.5309 129.03 31.4994 130.136 30.817C131.25 30.1268 132.47 29.7816 133.795 29.7816C134.807 29.7816 135.65 29.9542 136.325 30.2993C137.007 30.6366 137.556 31.0602 137.972 31.57C138.396 32.072 138.717 32.5662 138.937 33.0525H139.09V23.993H144.09V48.0889H139.149V45.1945H138.937C138.702 45.6965 138.368 46.1946 137.937 46.6888C137.513 47.1751 136.96 47.579 136.278 47.9006C135.603 48.2222 134.78 48.383 133.807 48.383ZM135.395 44.3945C136.203 44.3945 136.886 44.1749 137.443 43.7356C138.007 43.2885 138.439 42.6649 138.737 41.8649C139.043 41.0648 139.196 40.1275 139.196 39.0529C139.196 37.9783 139.047 37.0449 138.749 36.2527C138.451 35.4605 138.019 34.8487 137.454 34.4173C136.89 33.9859 136.203 33.7702 135.395 33.7702C134.572 33.7702 133.878 33.9937 133.313 34.4408C132.748 34.8879 132.321 35.5076 132.031 36.2998C131.74 37.092 131.595 38.0097 131.595 39.0529C131.595 40.104 131.74 41.0334 132.031 41.8413C132.329 42.6414 132.756 43.2689 133.313 43.7238C133.878 44.1709 134.572 44.3945 135.395 44.3945ZM148.14 48.0889V23.993H153.152V33.0525H153.305C153.524 32.5662 153.842 32.072 154.258 31.57C154.681 31.0602 155.23 30.6366 155.905 30.2993C156.587 29.9542 157.434 29.7816 158.446 29.7816C159.764 29.7816 160.98 30.1268 162.094 30.817C163.207 31.4994 164.098 32.5309 164.764 33.9114C165.431 35.284 165.764 37.0057 165.764 39.0764C165.764 41.0923 165.439 42.7944 164.788 44.1827C164.145 45.5632 163.266 46.6103 162.152 47.3241C161.046 48.03 159.807 48.383 158.434 48.383C157.462 48.383 156.634 48.2222 155.952 47.9006C155.277 47.579 154.724 47.1751 154.293 46.6888C153.862 46.1946 153.532 45.6965 153.305 45.1945H153.081V48.0889H148.14ZM153.046 39.0529C153.046 40.1275 153.195 41.0648 153.493 41.8649C153.791 42.6649 154.222 43.2885 154.787 43.7356C155.352 44.1749 156.038 44.3945 156.846 44.3945C157.662 44.3945 158.352 44.1709 158.917 43.7238C159.482 43.2689 159.909 42.6414 160.199 41.8413C160.497 41.0334 160.646 40.104 160.646 39.0529C160.646 38.0097 160.501 37.092 160.211 36.2998C159.921 35.5076 159.493 34.8879 158.929 34.4408C158.364 33.9937 157.67 33.7702 156.846 33.7702C156.03 33.7702 155.34 33.9859 154.775 34.4173C154.218 34.8487 153.791 35.4605 153.493 36.2527C153.195 37.0449 153.046 37.9783 153.046 39.0529ZM177.108 48.4418C175.281 48.4418 173.7 48.0536 172.367 47.277C171.041 46.4927 170.018 45.4024 169.296 44.0062C168.574 42.6022 168.214 40.9746 168.214 39.1235C168.214 37.2567 168.574 35.6252 169.296 34.229C170.018 32.825 171.041 31.7347 172.367 30.9582C173.7 30.1738 175.281 29.7816 177.108 29.7816C178.936 29.7816 180.513 30.1738 181.838 30.9582C183.172 31.7347 184.199 32.825 184.921 34.229C185.642 35.6252 186.003 37.2567 186.003 39.1235C186.003 40.9746 185.642 42.6022 184.921 44.0062C184.199 45.4024 183.172 46.4927 181.838 47.277C180.513 48.0536 178.936 48.4418 177.108 48.4418ZM177.132 44.5592C177.963 44.5592 178.658 44.3239 179.214 43.8533C179.771 43.3748 180.191 42.7238 180.473 41.9002C180.764 41.0766 180.909 40.1393 180.909 39.0882C180.909 38.0371 180.764 37.0998 180.473 36.2762C180.191 35.4526 179.771 34.8016 179.214 34.3232C178.658 33.8447 177.963 33.6055 177.132 33.6055C176.293 33.6055 175.587 33.8447 175.014 34.3232C174.449 34.8016 174.022 35.4526 173.732 36.2762C173.449 37.0998 173.308 38.0371 173.308 39.0882C173.308 40.1393 173.449 41.0766 173.732 41.9002C174.022 42.7238 174.449 43.3748 175.014 43.8533C175.587 44.3239 176.293 44.5592 177.132 44.5592ZM192.638 30.017L195.956 36.3351L199.356 30.017H204.498L199.262 39.0529L204.639 48.0889H199.521L195.956 41.8413L192.45 48.0889H187.273L192.638 39.0529L187.461 30.017H192.638Z" fill="black"/>
<path d="M73.5052 4.59082C72.0711 4.59082 70.6957 5.16052 69.6816 6.17459C68.6675 7.18867 68.0978 8.56404 68.0978 9.99816C68.0978 10.0036 68.0978 10.009 68.0978 10.0149C68.0976 10.0164 68.0976 10.0179 68.0978 10.0193V19.5133C68.0978 19.7814 68.2043 20.0385 68.3939 20.2281C68.5835 20.4177 68.8406 20.5242 69.1087 20.5242H69.2303C69.4984 20.5242 69.7555 20.4177 69.9451 20.2281C70.1347 20.0385 70.2412 19.7814 70.2412 19.5133V14.309C70.9251 14.8269 71.7224 15.1746 72.5673 15.3235C73.4121 15.4723 74.2803 15.418 75.1 15.1651C75.9198 14.9121 76.6675 14.4677 77.2816 13.8687C77.8957 13.2696 78.3584 12.533 78.6315 11.7198C78.9046 10.9066 78.9804 10.04 78.8524 9.19173C78.7245 8.34344 78.3966 7.53777 77.8957 6.84127C77.3949 6.14477 76.7355 5.57743 75.9721 5.18612C75.2086 4.79481 74.3631 4.59076 73.5052 4.59082Z" fill="#B4B2B2"/>
<path d="M90.6919 9.90881C90.692 8.69764 90.2826 7.52203 89.5302 6.57291C88.7778 5.62379 87.7266 4.95693 86.5474 4.68064C85.3682 4.40435 84.1302 4.53486 83.0345 5.05098C81.9388 5.56709 81.0498 6.43849 80.5118 7.52363C79.9739 8.60878 79.8186 9.84392 80.0712 11.0284C80.3239 12.213 80.9696 13.2773 81.9034 14.0485C82.8373 14.8198 84.0045 15.2526 85.2154 15.2768C86.4263 15.301 87.6098 14.915 88.5737 14.1817C88.5887 14.4521 88.7066 14.7066 88.9033 14.8928C89.1 15.079 89.3605 15.1829 89.6314 15.1831C89.7707 15.1832 89.9086 15.1558 90.0374 15.1025C90.1661 15.0493 90.2831 14.9712 90.3816 14.8727C90.4802 14.7742 90.5583 14.6572 90.6117 14.5285C90.665 14.3998 90.6924 14.2619 90.6924 14.1226V10.259C90.6924 10.2221 90.6924 10.1857 90.687 10.1497C90.69 10.0699 90.6919 9.98959 90.6919 9.90881ZM85.3718 13.2201C84.7237 13.2204 84.09 13.0284 83.551 12.6685C83.0119 12.3086 82.5918 11.7969 82.3436 11.1981C82.0955 10.5994 82.0305 9.94048 82.1569 9.30478C82.2833 8.66909 82.5954 8.08517 83.0538 7.6269C83.5121 7.16863 84.0961 6.8566 84.7318 6.73028C85.3675 6.60397 86.0264 6.66904 86.6251 6.91728C87.2239 7.16551 87.7355 7.58575 88.0953 8.12483C88.4552 8.66391 88.647 9.29761 88.6466 9.94575C88.6461 10.8143 88.3007 11.6472 87.6863 12.2612C87.072 12.8752 86.2389 13.2201 85.3703 13.2201H85.3718Z" fill="#B4B2B2"/>
<path d="M102.543 15.2763L102.495 8.97296C102.303 7.83509 101.741 6.79231 100.896 6.00595C100.052 5.21959 98.9716 4.73348 97.8229 4.62283C96.6742 4.51217 95.521 4.78313 94.5418 5.3938C93.5626 6.00447 92.8119 6.92079 92.4059 8.00103C91.9999 9.08126 91.9612 10.2652 92.2957 11.3696C92.6303 12.4741 93.3195 13.4375 94.2567 14.1109C95.1939 14.7842 96.3269 15.13 97.4803 15.0946C98.6338 15.0592 99.7435 14.6448 100.638 13.9153L100.672 14.6409C100.713 15.4123 100.525 16.1786 100.13 16.8428C98.8825 18.9118 97.1254 18.5714 96.0161 18.0556C95.4695 17.7961 95.0099 17.3838 94.6929 16.8684C93.9082 15.6158 92.9279 16.1788 92.9279 16.1788C91.3604 17.4596 94.5905 19.8364 94.5905 19.8364C98.153 21.4044 99.9106 19.8364 99.9106 19.8364C102.568 18.3582 102.543 15.2763 102.543 15.2763ZM97.3195 13.0049C96.6952 13.0049 96.085 12.8198 95.5659 12.473C95.0468 12.1262 94.6422 11.6333 94.4033 11.0565C94.1643 10.4798 94.1017 9.84515 94.2235 9.23286C94.3452 8.62056 94.6457 8.0581 95.0871 7.6166C95.5284 7.1751 96.0908 6.87438 96.7031 6.75247C97.3153 6.63056 97.95 6.69293 98.5268 6.9317C99.1036 7.17047 99.5967 7.5749 99.9437 8.09388C100.291 8.61285 100.476 9.22306 100.476 9.84733C100.476 10.262 100.395 10.6725 100.236 11.0556C100.078 11.4387 99.845 11.7868 99.5519 12.08C99.2588 12.3733 98.9108 12.6059 98.5277 12.7646C98.1447 12.9233 97.7341 13.0049 97.3195 13.0049Z" fill="#B4B2B2"/>
<path d="M106.021 5.58883C106.021 4.9767 105.525 4.48047 104.913 4.48047C104.301 4.48047 103.805 4.9767 103.805 5.58883V14.1075C103.805 14.7196 104.301 15.2158 104.913 15.2158C105.525 15.2158 106.021 14.7196 106.021 14.1075V5.58883Z" fill="#B4B2B2"/>
<path d="M109.533 5.58883C109.533 4.9767 109.037 4.48047 108.425 4.48047C107.813 4.48047 107.316 4.9767 107.316 5.58883V14.1075C107.316 14.7196 107.813 15.2158 108.425 15.2158C109.037 15.2158 109.533 14.7196 109.533 14.1075V5.58883Z" fill="#B4B2B2"/>
<path d="M105.822 1.32836L106.573 2.29436L108.733 0.565803C108.792 0.518608 108.86 0.483571 108.933 0.462703C109.006 0.441834 109.082 0.435545 109.157 0.444195C109.233 0.452845 109.306 0.476264 109.372 0.513109C109.438 0.549954 109.496 0.5995 109.543 0.658906L109.577 0.701762C109.693 0.849136 109.747 1.03566 109.729 1.22231C109.71 1.40897 109.621 1.58129 109.478 1.70323L106.905 3.90863C106.663 4.11602 106.018 4.24705 105.752 3.79237L104.74 2.29436C104.37 1.80175 104.794 1.50175 105.183 1.2392C105.558 1.00373 105.746 1.24757 105.904 1.43624L105.822 1.32836Z" fill="#B4B2B2"/>
<path d="M70.5312 8.81754L70.8633 9.02788C70.8633 9.02788 71.1243 8.43183 71.4278 8.18749L71.1165 7.91016C71.1165 7.91016 70.848 8.19685 70.5312 8.81754Z" fill="white"/>
<path d="M71.625 7.56675L71.8767 7.84014C71.8767 7.84014 73.692 6.54114 75.3993 8.18053L75.7225 7.93423C75.7225 7.93423 73.9969 5.99041 71.625 7.56675Z" fill="white"/>
<path d="M75.7266 8.56577L76.0487 8.36035C76.0487 8.36035 76.597 8.96773 76.6492 10.6726L76.266 10.7076C76.266 10.7076 76.2862 9.23029 75.7266 8.56577Z" fill="white"/>
<path d="M70.8438 11.1035L71.1339 11.2912C71.1339 11.2912 71.4265 11.2183 71.3107 10.3809C71.3107 10.3809 71.1832 9.84641 71.4506 9.67794L71.1851 9.43164C71.1851 9.43164 70.8324 9.74642 70.9428 10.1637C70.9428 10.1641 71.0738 10.8563 70.8438 11.1035Z" fill="white"/>
<path d="M71.2812 9.00952L71.5719 9.16715C71.5719 9.16715 72.532 7.64648 74.0738 8.20608L74.2541 7.8647C74.2541 7.8647 72.4605 7.15239 71.2812 9.00952Z" fill="white"/>
<path d="M74.7138 8.12988L74.4961 8.45008C74.4961 8.45008 75.7153 8.84416 75.4759 11.0934L75.9059 11.0545C75.9059 11.0545 76.136 8.90081 74.7138 8.12988Z" fill="white"/>
<path d="M75.4353 11.5176L75.8476 11.5668C75.8476 11.5668 75.7702 12.0141 75.6609 12.1885L75.3008 12.0639C75.3711 11.889 75.4163 11.7051 75.4353 11.5176Z" fill="white"/>
<path d="M72.442 9.31726C72.442 9.31726 71.9725 9.64928 72.0932 10.1118C72.0932 10.1118 72.241 11.0315 71.6592 11.9921L71.375 11.7552C71.5469 11.525 71.6692 11.2617 71.7342 10.982C71.7992 10.7022 71.8056 10.4119 71.7528 10.1296C71.7528 10.1296 71.6494 9.4946 72.206 9.1084L72.442 9.31726Z" fill="white"/>
<path d="M72.6133 8.67068L72.8212 9.00663C72.8212 9.00663 74.4916 8.283 74.764 10.2012L75.1295 10.1677C75.1295 10.1677 74.9054 7.85098 72.6133 8.67068Z" fill="white"/>
<path d="M74.7059 10.7396L75.1266 10.7012C75.1266 10.7012 75.267 12.1381 74.634 12.7701L74.2812 12.5731C74.2812 12.5731 74.829 11.9243 74.7059 10.7396Z" fill="white"/>
<path d="M71.9414 12.2525L72.2404 12.4988C72.2404 12.4988 72.8315 11.7106 72.767 11.0244L72.4537 11.0525C72.4537 11.0525 72.3729 11.7894 71.9414 12.2525Z" fill="white"/>
<path d="M72.4964 10.6538L72.8442 10.6218C72.8442 10.6218 72.789 9.82079 73.189 9.68877C73.4589 9.6001 73.754 9.6602 73.8895 9.91044C73.9592 10.051 73.9959 10.2057 73.9969 10.3627C73.9969 10.3627 74.0461 10.8681 73.8954 11.6341L74.2688 11.6232C74.2688 11.6232 74.4658 10.7494 74.3269 10.0104C74.2985 9.85576 74.2311 9.71091 74.131 9.58961C74.0309 9.46831 73.9015 9.37459 73.755 9.31734C73.5087 9.22276 73.1767 9.22178 72.7969 9.53163C72.7989 9.53163 72.4851 9.76709 72.4964 10.6538Z" fill="white"/>
<path d="M73.7602 12.0469L74.1016 12.1124C74.1016 12.1124 73.9923 12.7405 73.7568 12.9375L73.4844 12.7163C73.4844 12.7163 73.7356 12.4001 73.7602 12.0469Z" fill="white"/>
<path d="M73.2033 10.2645L73.5974 10.2285C73.5974 10.2285 73.9255 11.4906 72.9368 12.8728L72.5664 12.6004C72.5664 12.6004 73.4304 11.5753 73.2033 10.2645Z" fill="white"/>
<path d="M28.918 63.7801L29.026 31.9746L56.3802 16.1641L56.2039 47.1903L28.918 63.7801Z" fill="#FFC535"/>
<path d="M28.9683 63.7407L29.0312 32.1103L2.01197 16.0537L1.79045 47.3766L28.9683 63.7407Z" fill="#FFC535"/>
<path d="M56.3825 16.1646L29.0283 0.21875L2.01172 16.0538L29.0283 32.2771L56.3825 16.1646Z" fill="#FCD983"/>
<path d="M50.0709 19.8191L36.9052 12.8428L23.9375 19.8433L37.0042 27.4598L50.0709 19.8191Z" fill="white"/>
<path d="M37.0039 43.6264V27.4592L50.0706 19.8184V35.3968L37.0039 43.6264Z" fill="white"/>
</svg>
