<svg width="64" height="80" viewBox="0 0 64 80" fill="none" xmlns="http://www.w3.org/2000/svg">
<path d="M55.6567 15.796L8.34472 28.4583C8.34472 28.4583 5.52808 28.6546 5.35091 25.808C4.93906 19.191 11.2403 4.075 26.7492 0.728801C42.2581 -2.6174 53.7831 6.34168 56.6382 11.7224C58.0705 14.4218 55.6567 15.796 55.6567 15.796Z" fill="#B92362"/>
<path d="M61.2488 42.7134L58.5086 50.0205C58.0293 51.2987 56.4313 51.7136 55.4008 50.8182C51.222 47.1867 42.0515 39.1501 38.8711 35.8201C38.3673 35.0553 38.9349 34.1088 39.2147 33.8569C39.4804 33.6178 39.8398 33.1038 40.687 33.2189C43.5604 34.0455 55.4936 38.4708 60.1065 40.1908C61.1224 40.5696 61.6295 41.6982 61.2488 42.7134Z" fill="#B92362"/>
<path d="M6.43466 38.9956L5.96949 52.9816C5.89846 55.1174 7.54852 56.9178 9.68236 57.0327L51.4736 59.2846C54.3765 59.4411 55.233 55.394 52.5156 54.361L10.5369 36.3865C8.63236 35.571 6.50353 36.925 6.43466 38.9956Z" fill="#B92362"/>
<path d="M4.84731 76.6161C4.84731 77.0908 4.80167 77.4803 4.71039 77.7846C4.6191 78.0888 4.45783 78.3597 4.22657 78.597C3.96488 78.8709 3.67885 79.0626 3.36847 79.1721C3.06418 79.2817 2.7386 79.3364 2.39171 79.3364C2.03265 79.3364 1.70706 79.2756 1.41494 79.1538C1.12891 79.0321 0.870265 78.8556 0.639006 78.6244C0.47469 78.4601 0.346889 78.2866 0.255602 78.1041C0.170402 77.9154 0.109544 77.7146 0.0730292 77.5016C0.0365146 77.2886 0.0152144 77.0603 0.00912865 76.8169C0.00304289 76.5735 0 76.3118 0 76.0319C0 75.7519 0.00304289 75.4902 0.00912865 75.2468C0.0152144 75.0034 0.0365146 74.7751 0.0730292 74.5621C0.109544 74.3491 0.170402 74.1513 0.255602 73.9688C0.346889 73.7801 0.47469 73.6036 0.639006 73.4393C0.870265 73.2081 1.12891 73.0316 1.41494 72.9099C1.70097 72.7881 2.02656 72.7273 2.39171 72.7273C2.76902 72.7273 3.1007 72.7851 3.38673 72.9007C3.67276 73.0103 3.91619 73.1624 4.11702 73.3572C4.31785 73.5458 4.47608 73.7679 4.59171 74.0235C4.71343 74.2731 4.79559 74.5348 4.83819 74.8086H3.56017C3.48715 74.4982 3.3563 74.2639 3.16764 74.1057C2.97898 73.9414 2.72034 73.8592 2.39171 73.8592C2.21522 73.8592 2.05699 73.8927 1.91702 73.9596C1.78313 74.0205 1.67054 74.1027 1.57926 74.2061C1.5184 74.2731 1.46667 74.3491 1.42407 74.4343C1.38756 74.5135 1.35713 74.62 1.33278 74.7538C1.30844 74.8877 1.29018 75.0581 1.27801 75.265C1.27193 75.4659 1.26888 75.7215 1.26888 76.0319C1.26888 76.3422 1.27193 76.6009 1.27801 76.8078C1.29018 77.0147 1.30844 77.1851 1.33278 77.319C1.35713 77.4529 1.38756 77.5624 1.42407 77.6476C1.46667 77.7267 1.5184 77.7998 1.57926 77.8667C1.67054 77.9702 1.78313 78.0523 1.91702 78.1132C2.05699 78.174 2.21522 78.2045 2.39171 78.2045C2.58645 78.2045 2.7599 78.174 2.91204 78.1132C3.06418 78.0462 3.19199 77.955 3.29544 77.8393C3.3989 77.7176 3.47193 77.5868 3.51453 77.4468C3.56322 77.3007 3.58756 77.1425 3.58756 76.9721V76.7256H2.39171V75.6667H4.84731V76.6161Z" fill="#B92362"/>
<path d="M12.9787 76.0319C12.9787 76.3118 12.9756 76.5735 12.9695 76.8169C12.9634 77.0603 12.9391 77.2886 12.8965 77.5016C12.86 77.7146 12.7961 77.9154 12.7048 78.1041C12.6196 78.2866 12.4948 78.4601 12.3305 78.6244C12.0993 78.8556 11.8406 79.0321 11.5546 79.1538C11.2746 79.2756 10.9491 79.3364 10.5778 79.3364C10.2066 79.3364 9.87796 79.2756 9.59192 79.1538C9.30589 79.0321 9.04725 78.8556 8.81599 78.6244C8.65167 78.4601 8.52387 78.2866 8.43259 78.1041C8.34739 77.9154 8.28653 77.7146 8.25001 77.5016C8.2135 77.2886 8.1922 77.0603 8.18611 76.8169C8.18003 76.5735 8.17698 76.3118 8.17698 76.0319C8.17698 75.7519 8.18003 75.4902 8.18611 75.2468C8.1922 75.0034 8.2135 74.7751 8.25001 74.5621C8.28653 74.3491 8.34739 74.1513 8.43259 73.9688C8.52387 73.7801 8.65167 73.6036 8.81599 73.4393C9.04725 73.2081 9.30589 73.0316 9.59192 72.9099C9.87796 72.7881 10.2066 72.7273 10.5778 72.7273C10.9491 72.7273 11.2746 72.7881 11.5546 72.9099C11.8406 73.0316 12.0993 73.2081 12.3305 73.4393C12.4948 73.6036 12.6196 73.7801 12.7048 73.9688C12.7961 74.1513 12.86 74.3491 12.8965 74.5621C12.9391 74.7751 12.9634 75.0034 12.9695 75.2468C12.9756 75.4902 12.9787 75.7519 12.9787 76.0319ZM11.7098 76.0319C11.7098 75.7215 11.7037 75.4659 11.6915 75.265C11.6854 75.0581 11.6702 74.8877 11.6459 74.7538C11.6215 74.62 11.5881 74.5135 11.5455 74.4343C11.5029 74.3491 11.4511 74.2731 11.3903 74.2061C11.299 74.1027 11.1834 74.0205 11.0434 73.9596C10.9095 73.8927 10.7543 73.8592 10.5778 73.8592C10.4013 73.8592 10.2431 73.8927 10.1031 73.9596C9.96316 74.0205 9.84753 74.1027 9.75624 74.2061C9.69538 74.2731 9.64365 74.3491 9.60105 74.4343C9.56454 74.5135 9.53411 74.62 9.50977 74.7538C9.48542 74.8877 9.46717 75.0581 9.455 75.265C9.44891 75.4659 9.44587 75.7215 9.44587 76.0319C9.44587 76.3422 9.44891 76.6009 9.455 76.8078C9.46717 77.0086 9.48542 77.176 9.50977 77.3099C9.53411 77.4437 9.56454 77.5533 9.60105 77.6385C9.64365 77.7176 9.69538 77.7906 9.75624 77.8576C9.84753 77.961 9.96316 78.0462 10.1031 78.1132C10.2431 78.174 10.4013 78.2045 10.5778 78.2045C10.7543 78.2045 10.9095 78.174 11.0434 78.1132C11.1834 78.0462 11.299 77.961 11.3903 77.8576C11.4511 77.7906 11.5029 77.7176 11.5455 77.6385C11.5881 77.5533 11.6215 77.4437 11.6459 77.3099C11.6702 77.176 11.6854 77.0086 11.6915 76.8078C11.7037 76.6009 11.7098 76.3422 11.7098 76.0319Z" fill="#B92362"/>
<path d="M18.8332 73.914V79.2817H17.5643V73.914H15.8664V72.7821H20.5311V73.914H18.8332Z" fill="#B92362"/>
<path d="M32.9126 77.4103C32.9126 77.7146 32.8639 77.9823 32.7666 78.2136C32.6692 78.4449 32.5323 78.6396 32.3558 78.7978C32.1793 78.9561 31.9693 79.0778 31.7259 79.163C31.4825 79.2421 31.2147 79.2817 30.9226 79.2817H28.2022V72.7821H30.813C31.452 72.7821 31.945 72.9464 32.2919 73.275C32.6448 73.6036 32.8213 74.0479 32.8213 74.6078C32.8213 74.7904 32.7939 74.9547 32.7392 75.1007C32.6905 75.2468 32.6235 75.3776 32.5383 75.4933C32.4592 75.6028 32.374 75.6971 32.2827 75.7762C32.1915 75.8554 32.1032 75.9132 32.018 75.9497C32.1154 75.9923 32.2158 76.0532 32.3193 76.1323C32.4288 76.2114 32.5262 76.3088 32.6114 76.4244C32.6966 76.54 32.7666 76.68 32.8213 76.8443C32.8822 77.0025 32.9126 77.1912 32.9126 77.4103ZM31.5524 74.6626C31.5524 74.4374 31.4794 74.2579 31.3334 74.124C31.1934 73.984 30.9865 73.914 30.7126 73.914H29.4711V75.4111H30.7126C30.9865 75.4111 31.1934 75.3442 31.3334 75.2103C31.4794 75.0703 31.5524 74.8877 31.5524 74.6626ZM31.6437 77.3464C31.6437 77.1273 31.5737 76.9417 31.4338 76.7895C31.2999 76.6313 31.0869 76.5522 30.7948 76.5522H29.4711V78.1497H30.7948C31.0869 78.1497 31.2999 78.0706 31.4338 77.9124C31.5737 77.7541 31.6437 77.5655 31.6437 77.3464Z" fill="#B92362"/>
<path d="M36.4684 79.2817V72.7821H40.7497V73.914H37.7372V75.4385H40.3024V76.5704H37.7372V78.1497H40.7497V79.2817H36.4684Z" fill="#B92362"/>
<path d="M44.2531 79.2817V72.7821H48.5344V73.914H45.522V75.4385H48.0871V76.5704H45.522V78.1497H48.5344V79.2817H44.2531Z" fill="#B92362"/>
<path d="M53.3067 73.914V75.5115H55.8719V76.6435H53.3067V79.2817H52.0378V72.7821H56.3192V73.914H53.3067Z" fill="#B92362"/>
<path fill-rule="evenodd" clip-rule="evenodd" d="M60.7564 74.3233C60.5427 74.4706 60.4729 74.6162 60.4651 74.7329L59.1919 74.6481C59.2332 74.0286 59.6051 73.5669 60.0325 73.2725C60.458 72.9793 60.9882 72.8114 61.5033 72.7666C62.0159 72.722 62.5774 72.7943 63.0498 73.0555C63.5458 73.3298 63.9222 73.8056 63.9963 74.4728C63.9989 74.4962 64.0002 74.5197 64.0002 74.5432C64.0002 75.1906 63.7463 75.7118 63.3063 76.0622C62.8993 76.3865 62.3878 76.522 61.9059 76.5527C61.7234 76.58 61.6512 76.5835 61.5953 76.6046C61.5925 76.6211 61.5577 76.668 61.5541 76.696C61.5515 76.7158 61.5486 76.7398 61.5454 76.7674C61.5332 76.8699 61.5463 76.9972 61.5541 77.1445H60.2702C60.2898 77.048 60.2626 76.7461 60.2736 76.6532C60.2781 76.6157 60.2829 76.5755 60.2888 76.5304C60.3058 76.4005 60.3361 76.1908 60.4451 75.9885C60.7024 75.5111 61.2124 75.3628 61.7505 75.2859L61.778 75.2819L61.8058 75.2804C62.1348 75.2624 62.3711 75.1758 62.5113 75.0641C62.6221 74.9759 62.7156 74.841 62.7236 74.5801C62.693 74.3836 62.5929 74.261 62.4323 74.1722C62.239 74.0653 61.9478 74.0088 61.6138 74.0378C61.2823 74.0666 60.972 74.1747 60.7564 74.3233Z" fill="#B92362"/>
<rect x="60.2217" y="78.0277" width="1.27605" height="1.27605" fill="#B92362"/>
</svg>
